<?xml version="1.0" encoding="utf-8"?>
<!-- Generator: Adobe Illustrator 19.0.0, SVG Export Plug-In . SVG Version: 6.00 Build 0)  -->
<svg version="1.1" id="Layer_1" xmlns="http://www.w3.org/2000/svg" xmlns:xlink="http://www.w3.org/1999/xlink" x="0px" y="0px"
	 viewBox="0 0 568.7 197.8" style="enable-background:new 0 0 568.7 197.8;" xml:space="preserve">
<g id="XMLID_986_">
	<g id="XMLID_1018_">
		<path id="XMLID_1019_" d="M436.8,131.3c-0.8,0.3-1.7,0-2-0.8l-0.3-0.7c-2.1-5-6-8.9-10.9-11.1l-113-46c-0.8-0.3-1.2-1.2-0.9-2
			l0.6-1.4c0.3-0.8,1.2-1.2,2-0.9l113.1,46c6.1,2.7,10.8,7.5,13.4,13.6l0.3,0.7c0.3,0.8,0,1.7-0.8,2L436.8,131.3z"/>
	</g>
	<g id="XMLID_1016_">
		<path id="XMLID_1017_" d="M129,131.3l-1.4-0.6c-0.8-0.3-1.2-1.3-0.8-2l0.3-0.7c2.6-6.1,7.3-10.9,13.3-13.6L293,51.9
			c10.5-4.7,16.7-16.3,14-28.2c-2.3-9.9-10.7-17.6-20.8-18.9c-15-1.9-27.9,9.8-27.9,24.5v0.8c0,0.9-0.7,1.6-1.6,1.6h-1.6
			c-0.9,0-1.6-0.7-1.6-1.6V30c0-15.3,11.4-28.5,26.6-29.9c17.4-1.6,32.1,12.1,32.1,29.2c0,11.6-6.9,22.1-17.5,26.9l-152.6,62.4
			c-4.9,2.2-8.8,6.1-10.9,11.1l-0.3,0.7C130.8,131.3,129.8,131.6,129,131.3z"/>
	</g>
	<g id="XMLID_987_">
		<path id="XMLID_1014_" d="M36.3,142.7c0-1.2,0.6-1.8,1.8-1.8h1.4c1.2,0,1.8,0.6,1.8,1.8v32.6c0,7.8-1.8,13.5-5.4,17.1
			c-3.6,3.6-8.7,5.4-15.2,5.4c-3.3,0-6.2-0.4-8.7-1.3c-2.6-0.9-4.7-2.2-6.5-4.1s-3.1-4.2-4.1-7c-0.9-2.8-1.4-6.2-1.4-10.1v-32.6
			c0-1.2,0.6-1.8,1.8-1.8h1.4c1.2,0,1.8,0.6,1.8,1.8v32.8c0,6,1.4,10.5,4.2,13.3c2.8,2.8,6.6,4.2,11.4,4.2c4.8,0,8.6-1.4,11.4-4.2
			c2.8-2.8,4.2-7.2,4.2-13.3V142.7z"/>
		<path id="XMLID_1012_" d="M61,150.9v44.3c0,1.2-0.6,1.8-1.8,1.8h-1.4c-1.2,0-1.8-0.6-1.8-1.8v-52.6c0-1.2,0.6-1.8,1.8-1.8h1.7
			c0.5,0,0.9,0.1,1.2,0.4c0.2,0.3,0.4,0.5,0.5,0.6L90.7,187v-44.4c0-1.2,0.6-1.8,1.8-1.8h1.4c1.2,0,1.8,0.6,1.8,1.8v52.5
			c0,1.2-0.6,1.8-1.8,1.8h-1.8c-0.5,0-0.9-0.1-1.2-0.4c-0.2-0.3-0.4-0.5-0.5-0.6L61,150.9z"/>
		<path id="XMLID_1009_" d="M143.5,183h-28.4l-5,12.8c-0.1,0.2-0.3,0.5-0.6,0.8c-0.3,0.3-0.7,0.4-1.2,0.4h-1.6
			c-0.4,0-0.8-0.2-1.1-0.5c-0.3-0.3-0.5-0.7-0.5-1.1c0-0.3,0.1-0.6,0.2-0.9l20.3-52.1c0.2-0.5,0.5-0.9,0.8-1.2
			c0.3-0.3,0.8-0.4,1.5-0.4h2.7c0.6,0,1.1,0.1,1.5,0.4c0.3,0.3,0.6,0.7,0.8,1.2l20.3,52.1c0.1,0.3,0.2,0.6,0.2,0.9
			c0,0.4-0.2,0.8-0.5,1.1c-0.3,0.3-0.7,0.5-1.1,0.5h-1.6c-0.5,0-0.9-0.1-1.2-0.4c-0.3-0.3-0.5-0.5-0.6-0.8L143.5,183z M117.1,178.1
			h24.6l-12.3-31.6L117.1,178.1z"/>
		<path id="XMLID_1006_" d="M184.2,140.8c5.6,0,10.1,1.4,13.4,4.2c3.3,2.8,5,6.9,5,12.4c0,5.5-1.7,9.6-5,12.4
			c-3.3,2.8-7.8,4.2-13.4,4.2H168v21.2c0,1.2-0.6,1.8-1.8,1.8h-1.4c-1.2,0-1.8-0.6-1.8-1.8v-52.6c0-1.2,0.6-1.8,1.8-1.8H184.2z
			 M168,169.2h15.8c4.7,0,8.2-1,10.4-3c2.2-2,3.4-4.9,3.4-8.8s-1.1-6.8-3.4-8.8c-2.2-2-5.7-3-10.4-3H168V169.2z"/>
		<path id="XMLID_1003_" d="M232.4,140c3.1,0,5.9,0.5,8.5,1.4c2.6,0.9,4.8,2.3,6.6,4.1c1.8,1.8,3.3,4.1,4.3,6.9c1,2.8,1.6,6,1.7,9.7
			c0.1,2.4,0.2,4.7,0.2,6.7c0,2.1-0.1,4.3-0.2,6.7c-0.2,7.6-2.1,13.2-5.8,16.8c-3.6,3.6-8.8,5.4-15.4,5.4c-6.7,0-11.8-1.8-15.4-5.4
			c-3.6-3.6-5.5-9.2-5.7-16.8c-0.1-2.4-0.2-4.7-0.2-6.7c0-2.1,0.1-4.3,0.2-6.7c0.1-3.7,0.7-7,1.7-9.7c1-2.8,2.5-5.1,4.3-6.9
			s4-3.2,6.6-4.1C226.3,140.5,229.2,140,232.4,140z M232.4,144.8c-2.2,0-4.3,0.3-6.3,1c-1.9,0.7-3.6,1.7-5.1,3.2
			c-1.4,1.4-2.6,3.3-3.4,5.5c-0.8,2.2-1.3,4.9-1.4,8c-0.1,1.2-0.1,2.4-0.1,3.4c0,1,0,2,0,3s0,2,0,3c0,1,0.1,2.2,0.1,3.3
			c0.1,3.2,0.6,5.8,1.4,8.1c0.8,2.2,2,4.1,3.4,5.5c1.4,1.4,3.1,2.5,5,3.2c1.9,0.7,4,1,6.3,1c2.3,0,4.4-0.3,6.3-1
			c1.9-0.7,3.6-1.7,5-3.2c1.4-1.4,2.5-3.3,3.4-5.5c0.8-2.2,1.3-4.9,1.4-8.1c0.1-1.2,0.1-2.3,0.1-3.3c0-1,0-2,0-3s0-2,0-3
			c0-1,0-2.1-0.1-3.4c-0.1-3.1-0.6-5.8-1.4-8c-0.8-2.2-2-4.1-3.4-5.5c-1.4-1.4-3.1-2.5-5.1-3.2C236.7,145.2,234.6,144.8,232.4,144.8
			z"/>
		<path id="XMLID_1001_" d="M271.5,192.2h27.7c1.2,0,1.8,0.6,1.8,1.8v1.2c0,1.2-0.6,1.8-1.8,1.8h-31c-1.2,0-1.8-0.6-1.8-1.8v-52.6
			c0-1.2,0.6-1.8,1.8-1.8h1.5c1.2,0,1.8,0.6,1.8,1.8V192.2z"/>
		<path id="XMLID_998_" d="M328.5,140c3.1,0,5.9,0.5,8.5,1.4c2.6,0.9,4.8,2.3,6.6,4.1s3.3,4.1,4.3,6.9c1,2.8,1.6,6,1.7,9.7
			c0.1,2.4,0.2,4.7,0.2,6.7c0,2.1-0.1,4.3-0.2,6.7c-0.2,7.6-2.1,13.2-5.8,16.8c-3.6,3.6-8.8,5.4-15.4,5.4c-6.7,0-11.8-1.8-15.4-5.4
			c-3.6-3.6-5.5-9.2-5.7-16.8c-0.1-2.4-0.2-4.7-0.2-6.7c0-2.1,0.1-4.3,0.2-6.7c0.1-3.7,0.7-7,1.7-9.7c1-2.8,2.5-5.1,4.3-6.9
			c1.8-1.8,4-3.2,6.6-4.1C322.5,140.5,325.4,140,328.5,140z M328.5,144.8c-2.2,0-4.3,0.3-6.3,1c-1.9,0.7-3.6,1.7-5.1,3.2
			c-1.4,1.4-2.6,3.3-3.4,5.5c-0.8,2.2-1.3,4.9-1.4,8c-0.1,1.2-0.1,2.4-0.1,3.4c0,1,0,2,0,3s0,2,0,3c0,1,0.1,2.2,0.1,3.3
			c0.1,3.2,0.6,5.8,1.4,8.1c0.8,2.2,2,4.1,3.4,5.5s3.1,2.5,5,3.2c1.9,0.7,4,1,6.3,1c2.3,0,4.4-0.3,6.3-1c1.9-0.7,3.6-1.7,5-3.2
			c1.4-1.4,2.5-3.3,3.4-5.5c0.8-2.2,1.3-4.9,1.4-8.1c0.1-1.2,0.1-2.3,0.1-3.3c0-1,0-2,0-3s0-2,0-3c0-1,0-2.1-0.1-3.4
			c-0.1-3.1-0.6-5.8-1.4-8c-0.8-2.2-2-4.1-3.4-5.5c-1.4-1.4-3.1-2.5-5.1-3.2C332.9,145.2,330.8,144.8,328.5,144.8z"/>
		<path id="XMLID_996_" d="M381.9,144.8c-2.4,0-4.6,0.3-6.5,0.9c-2,0.6-3.6,1.6-5.1,3c-1.4,1.4-2.5,3.1-3.4,5.3
			c-0.8,2.1-1.3,4.7-1.4,7.7c-0.2,4.8-0.2,9.6,0,14.4c0.1,3,0.6,5.6,1.4,7.7c0.8,2.1,2,3.9,3.4,5.3c1.4,1.4,3.1,2.4,5.1,3
			c2,0.6,4.1,0.9,6.5,0.9c2.4,0,4.5-0.3,6.6-1c2-0.7,3.8-1.7,5.3-3c1.5-1.4,2.6-3.1,3.5-5.3c0.9-2.1,1.3-4.7,1.3-7.5V172h-14
			c-1.2,0-1.8-0.6-1.8-1.8v-1.1c0-1.2,0.6-1.8,1.8-1.8h17.2c1.2,0,1.8,0.6,1.8,1.8v7.1c0,3.2-0.5,6.1-1.4,8.8
			c-1,2.6-2.4,4.9-4.2,6.9c-1.8,1.9-4.1,3.4-6.8,4.5c-2.7,1-5.8,1.6-9.2,1.6c-3.5,0-6.5-0.5-9.1-1.6c-2.6-1-4.8-2.5-6.6-4.4
			c-1.8-1.9-3.2-4.1-4.1-6.7c-0.9-2.6-1.5-5.5-1.6-8.6c-0.1-2.4-0.2-4.9-0.2-7.6c0-2.7,0.1-5.2,0.2-7.6c0.1-3.2,0.6-6,1.6-8.6
			c1-2.6,2.3-4.8,4.1-6.7c1.8-1.9,4-3.3,6.6-4.4c2.6-1,5.6-1.6,9.1-1.6c3.7,0,6.8,0.6,9.5,1.7c2.6,1.1,4.8,2.5,6.4,4
			c1.7,1.6,2.9,3.2,3.7,4.9c0.8,1.7,1.2,3.1,1.3,4.3c0.1,0.5-0.1,0.9-0.4,1.2c-0.3,0.3-0.7,0.4-1.3,0.4h-1.8c-0.5,0-0.8-0.1-1-0.4
			c-0.2-0.2-0.4-0.7-0.6-1.2c-0.4-1.2-1-2.4-1.8-3.6c-0.8-1.2-1.8-2.3-3.1-3.2c-1.3-0.9-2.8-1.7-4.6-2.3
			C386.4,145.1,384.3,144.8,381.9,144.8z"/>
		<path id="XMLID_994_" d="M449.6,192.2c1.2,0,1.8,0.6,1.8,1.8v1.2c0,1.2-0.6,1.8-1.8,1.8h-31.9c-1.2,0-1.8-0.6-1.8-1.8v-52.6
			c0-1.2,0.6-1.8,1.8-1.8H449c1.2,0,1.8,0.6,1.8,1.8v1.2c0,1.2-0.6,1.8-1.8,1.8h-28v20.5h26.2c1.2,0,1.8,0.6,1.8,1.8v1.2
			c0,1.2-0.6,1.8-1.8,1.8H421v21.3H449.6z"/>
		<path id="XMLID_992_" d="M496.6,140.8c1.2,0,1.8,0.6,1.8,1.8v1.2c0,1.2-0.6,1.8-1.8,1.8h-15.8v49.6c0,1.2-0.6,1.8-1.8,1.8h-1.4
			c-1.2,0-1.8-0.6-1.8-1.8v-49.6h-15.9c-1.2,0-1.8-0.6-1.8-1.8v-1.2c0-1.2,0.6-1.8,1.8-1.8H496.6z"/>
		<path id="XMLID_990_" d="M513.2,195.2c0,1.2-0.6,1.8-1.8,1.8h-1.5c-1.2,0-1.8-0.6-1.8-1.8v-52.6c0-1.2,0.6-1.8,1.8-1.8h1.5
			c1.2,0,1.8,0.6,1.8,1.8V195.2z"/>
		<path id="XMLID_988_" d="M531.1,162.2c-0.2,4.4-0.2,8.9,0,13.5c0.2,6.1,1.7,10.5,4.6,13.2c2.8,2.7,6.7,4.1,11.6,4.1
			c2.1,0,4.1-0.2,5.9-0.6c1.8-0.4,3.4-1.1,4.7-2c1.4-1,2.5-2.2,3.5-3.8c1-1.6,1.7-3.6,2.2-6c0.1-0.6,0.3-1.1,0.6-1.3
			c0.3-0.2,0.7-0.4,1.1-0.4h1.6c0.5,0,0.9,0.1,1.2,0.4c0.3,0.3,0.5,0.7,0.4,1.2c-0.1,1.9-0.6,3.9-1.4,5.9c-0.8,2-2.1,3.9-3.8,5.6
			c-1.7,1.7-3.9,3.1-6.6,4.2c-2.7,1.1-5.9,1.6-9.7,1.6c-3.6,0-6.8-0.5-9.4-1.6c-2.6-1.1-4.8-2.6-6.5-4.5c-1.7-1.9-3-4.2-3.9-6.9
			c-0.9-2.6-1.3-5.5-1.4-8.7c-0.1-2.2-0.2-4.5-0.2-7.1c0-2.5,0.1-4.9,0.2-7.2c0.1-3.1,0.6-6,1.4-8.7c0.9-2.7,2.2-5,3.9-6.9
			c1.7-1.9,3.9-3.4,6.5-4.5c2.6-1.1,5.7-1.6,9.4-1.6c3.8,0,7,0.5,9.7,1.6c2.7,1.1,4.9,2.5,6.6,4.2c1.7,1.7,3,3.5,3.8,5.6
			c0.8,2,1.3,4,1.4,5.9c0.1,0.5-0.1,0.9-0.4,1.2s-0.8,0.4-1.2,0.4h-1.6c-0.4,0-0.8-0.1-1.1-0.4c-0.3-0.2-0.5-0.7-0.6-1.3
			c-0.5-2.4-1.3-4.4-2.2-6c-1-1.6-2.1-2.8-3.5-3.8c-1.4-1-2.9-1.6-4.7-2c-1.8-0.4-3.8-0.6-5.9-0.6c-4.9,0-8.8,1.4-11.6,4.1
			C532.8,151.7,531.3,156.1,531.1,162.2z"/>
	</g>
</g>
</svg>
