<?xml version="1.0" encoding="utf-8"?>
<!-- Generator: Adobe Illustrator 19.0.0, SVG Export Plug-In . SVG Version: 6.00 Build 0)  -->
<svg version="1.1" id="Layer_1" xmlns="http://www.w3.org/2000/svg" xmlns:xlink="http://www.w3.org/1999/xlink" x="0px" y="0px"
	 viewBox="-21 438.2 568.7 57.8" style="enable-background:new -21 438.2 568.7 57.8;" xml:space="preserve">
<g id="XMLID_986_">
	<g id="XMLID_987_">
		<path id="XMLID_1014_" d="M15.3,440.9c0-1.2,0.6-1.8,1.8-1.8h1.4c1.2,0,1.8,0.6,1.8,1.8v32.6c0,7.8-1.8,13.5-5.4,17.1
			c-3.6,3.6-8.7,5.4-15.2,5.4c-3.3,0-6.2-0.4-8.7-1.3c-2.6-0.9-4.7-2.2-6.5-4.1c-1.8-1.9-3.1-4.2-4.1-7c-0.9-2.8-1.4-6.2-1.4-10.1
			v-32.6c0-1.2,0.6-1.8,1.8-1.8h1.4c1.2,0,1.8,0.6,1.8,1.8v32.8c0,6,1.4,10.5,4.2,13.3s6.6,4.2,11.4,4.2s8.6-1.4,11.4-4.2
			s4.2-7.2,4.2-13.3v-32.8H15.3z"/>
		<path id="XMLID_1012_" d="M40,449.1v44.3c0,1.2-0.6,1.8-1.8,1.8h-1.4c-1.2,0-1.8-0.6-1.8-1.8v-52.6c0-1.2,0.6-1.8,1.8-1.8h1.7
			c0.5,0,0.9,0.1,1.2,0.4c0.2,0.3,0.4,0.5,0.5,0.6l29.5,45.2v-44.4c0-1.2,0.6-1.8,1.8-1.8h1.4c1.2,0,1.8,0.6,1.8,1.8v52.5
			c0,1.2-0.6,1.8-1.8,1.8h-1.8c-0.5,0-0.9-0.1-1.2-0.4c-0.2-0.3-0.4-0.5-0.5-0.6L40,449.1z"/>
		<path id="XMLID_1009_" d="M122.5,481.2H94.1l-5,12.8c-0.1,0.2-0.3,0.5-0.6,0.8c-0.3,0.3-0.7,0.4-1.2,0.4h-1.6
			c-0.4,0-0.8-0.2-1.1-0.5c-0.3-0.3-0.5-0.7-0.5-1.1c0-0.3,0.1-0.6,0.2-0.9l20.3-52.1c0.2-0.5,0.5-0.9,0.8-1.2
			c0.3-0.3,0.8-0.4,1.5-0.4h2.7c0.6,0,1.1,0.1,1.5,0.4c0.3,0.3,0.6,0.7,0.8,1.2l20.3,52.1c0.1,0.3,0.2,0.6,0.2,0.9
			c0,0.4-0.2,0.8-0.5,1.1s-0.7,0.5-1.1,0.5h-1.6c-0.5,0-0.9-0.1-1.2-0.4c-0.3-0.3-0.5-0.5-0.6-0.8L122.5,481.2z M96.1,476.3h24.6
			l-12.3-31.6L96.1,476.3z"/>
		<path id="XMLID_1006_" d="M163.2,439c5.6,0,10.1,1.4,13.4,4.2c3.3,2.8,5,6.9,5,12.4s-1.7,9.6-5,12.4s-7.8,4.2-13.4,4.2H147v21.2
			c0,1.2-0.6,1.8-1.8,1.8h-1.4c-1.2,0-1.8-0.6-1.8-1.8v-52.6c0-1.2,0.6-1.8,1.8-1.8H163.2L163.2,439z M147,467.4h15.8
			c4.7,0,8.2-1,10.4-3s3.4-4.9,3.4-8.8s-1.1-6.8-3.4-8.8c-2.2-2-5.7-3-10.4-3H147V467.4z"/>
		<path id="XMLID_1003_" d="M211.4,438.2c3.1,0,5.9,0.5,8.5,1.4s4.8,2.3,6.6,4.1s3.3,4.1,4.3,6.9c1,2.8,1.6,6,1.7,9.7
			c0.1,2.4,0.2,4.7,0.2,6.7c0,2.1-0.1,4.3-0.2,6.7c-0.2,7.6-2.1,13.2-5.8,16.8c-3.6,3.6-8.8,5.4-15.4,5.4c-6.7,0-11.8-1.8-15.4-5.4
			c-3.6-3.6-5.5-9.2-5.7-16.8c-0.1-2.4-0.2-4.7-0.2-6.7c0-2.1,0.1-4.3,0.2-6.7c0.1-3.7,0.7-7,1.7-9.7c1-2.8,2.5-5.1,4.3-6.9
			s4-3.2,6.6-4.1C205.3,438.7,208.2,438.2,211.4,438.2z M211.4,443c-2.2,0-4.3,0.3-6.3,1c-1.9,0.7-3.6,1.7-5.1,3.2
			c-1.4,1.4-2.6,3.3-3.4,5.5c-0.8,2.2-1.3,4.9-1.4,8c-0.1,1.2-0.1,2.4-0.1,3.4s0,2,0,3s0,2,0,3s0.1,2.2,0.1,3.3
			c0.1,3.2,0.6,5.8,1.4,8.1c0.8,2.2,2,4.1,3.4,5.5c1.4,1.4,3.1,2.5,5,3.2s4,1,6.3,1s4.4-0.3,6.3-1c1.9-0.7,3.6-1.7,5-3.2
			c1.4-1.4,2.5-3.3,3.4-5.5c0.8-2.2,1.3-4.9,1.4-8.1c0.1-1.2,0.1-2.3,0.1-3.3s0-2,0-3s0-2,0-3s0-2.1-0.1-3.4c-0.1-3.1-0.6-5.8-1.4-8
			c-0.8-2.2-2-4.1-3.4-5.5s-3.1-2.5-5.1-3.2C215.7,443.4,213.6,443,211.4,443z"/>
		<path id="XMLID_1001_" d="M250.5,490.4h27.7c1.2,0,1.8,0.6,1.8,1.8v1.2c0,1.2-0.6,1.8-1.8,1.8h-31c-1.2,0-1.8-0.6-1.8-1.8v-52.6
			c0-1.2,0.6-1.8,1.8-1.8h1.5c1.2,0,1.8,0.6,1.8,1.8V490.4z"/>
		<path id="XMLID_998_" d="M307.5,438.2c3.1,0,5.9,0.5,8.5,1.4s4.8,2.3,6.6,4.1s3.3,4.1,4.3,6.9c1,2.8,1.6,6,1.7,9.7
			c0.1,2.4,0.2,4.7,0.2,6.7c0,2.1-0.1,4.3-0.2,6.7c-0.2,7.6-2.1,13.2-5.8,16.8c-3.6,3.6-8.8,5.4-15.4,5.4c-6.7,0-11.8-1.8-15.4-5.4
			c-3.6-3.6-5.5-9.2-5.7-16.8c-0.1-2.4-0.2-4.7-0.2-6.7c0-2.1,0.1-4.3,0.2-6.7c0.1-3.7,0.7-7,1.7-9.7c1-2.8,2.5-5.1,4.3-6.9
			s4-3.2,6.6-4.1C301.5,438.7,304.4,438.2,307.5,438.2z M307.5,443c-2.2,0-4.3,0.3-6.3,1c-1.9,0.7-3.6,1.7-5.1,3.2
			c-1.4,1.4-2.6,3.3-3.4,5.5s-1.3,4.9-1.4,8c-0.1,1.2-0.1,2.4-0.1,3.4s0,2,0,3s0,2,0,3s0.1,2.2,0.1,3.3c0.1,3.2,0.6,5.8,1.4,8.1
			c0.8,2.2,2,4.1,3.4,5.5c1.4,1.4,3.1,2.5,5,3.2s4,1,6.3,1s4.4-0.3,6.3-1s3.6-1.7,5-3.2c1.4-1.4,2.5-3.3,3.4-5.5
			c0.8-2.2,1.3-4.9,1.4-8.1c0.1-1.2,0.1-2.3,0.1-3.3s0-2,0-3s0-2,0-3s0-2.1-0.1-3.4c-0.1-3.1-0.6-5.8-1.4-8s-2-4.1-3.4-5.5
			s-3.1-2.5-5.1-3.2C311.9,443.4,309.8,443,307.5,443z"/>
		<path id="XMLID_996_" d="M360.9,443c-2.4,0-4.6,0.3-6.5,0.9c-2,0.6-3.6,1.6-5.1,3c-1.4,1.4-2.5,3.1-3.4,5.3
			c-0.8,2.1-1.3,4.7-1.4,7.7c-0.2,4.8-0.2,9.6,0,14.4c0.1,3,0.6,5.6,1.4,7.7c0.8,2.1,2,3.9,3.4,5.3c1.4,1.4,3.1,2.4,5.1,3
			c2,0.6,4.1,0.9,6.5,0.9s4.5-0.3,6.6-1c2-0.7,3.8-1.7,5.3-3c1.5-1.4,2.6-3.1,3.5-5.3c0.9-2.1,1.3-4.7,1.3-7.5v-4.2h-14
			c-1.2,0-1.8-0.6-1.8-1.8v-1.1c0-1.2,0.6-1.8,1.8-1.8h17.2c1.2,0,1.8,0.6,1.8,1.8v7.1c0,3.2-0.5,6.1-1.4,8.8
			c-1,2.6-2.4,4.9-4.2,6.9c-1.8,1.9-4.1,3.4-6.8,4.5c-2.7,1-5.8,1.6-9.2,1.6c-3.5,0-6.5-0.5-9.1-1.6c-2.6-1-4.8-2.5-6.6-4.4
			c-1.8-1.9-3.2-4.1-4.1-6.7c-0.9-2.6-1.5-5.5-1.6-8.6c-0.1-2.4-0.2-4.9-0.2-7.6c0-2.7,0.1-5.2,0.2-7.6c0.1-3.2,0.6-6,1.6-8.6
			c1-2.6,2.3-4.8,4.1-6.7c1.8-1.9,4-3.3,6.6-4.4c2.6-1,5.6-1.6,9.1-1.6c3.7,0,6.8,0.6,9.5,1.7c2.6,1.1,4.8,2.5,6.4,4
			c1.7,1.6,2.9,3.2,3.7,4.9c0.8,1.7,1.2,3.1,1.3,4.3c0.1,0.5-0.1,0.9-0.4,1.2c-0.3,0.3-0.7,0.4-1.3,0.4h-1.8c-0.5,0-0.8-0.1-1-0.4
			c-0.2-0.2-0.4-0.7-0.6-1.2c-0.4-1.2-1-2.4-1.8-3.6c-0.8-1.2-1.8-2.3-3.1-3.2c-1.3-0.9-2.8-1.7-4.6-2.3
			C365.4,443.3,363.3,443,360.9,443z"/>
		<path id="XMLID_994_" d="M428.6,490.4c1.2,0,1.8,0.6,1.8,1.8v1.2c0,1.2-0.6,1.8-1.8,1.8h-31.9c-1.2,0-1.8-0.6-1.8-1.8v-52.6
			c0-1.2,0.6-1.8,1.8-1.8H428c1.2,0,1.8,0.6,1.8,1.8v1.2c0,1.2-0.6,1.8-1.8,1.8h-28v20.5h26.2c1.2,0,1.8,0.6,1.8,1.8v1.2
			c0,1.2-0.6,1.8-1.8,1.8H400v21.3H428.6L428.6,490.4z"/>
		<path id="XMLID_992_" d="M475.6,439c1.2,0,1.8,0.6,1.8,1.8v1.2c0,1.2-0.6,1.8-1.8,1.8h-15.8v49.6c0,1.2-0.6,1.8-1.8,1.8h-1.4
			c-1.2,0-1.8-0.6-1.8-1.8v-49.6h-15.9c-1.2,0-1.8-0.6-1.8-1.8v-1.2c0-1.2,0.6-1.8,1.8-1.8H475.6z"/>
		<path id="XMLID_990_" d="M492.2,493.4c0,1.2-0.6,1.8-1.8,1.8h-1.5c-1.2,0-1.8-0.6-1.8-1.8v-52.6c0-1.2,0.6-1.8,1.8-1.8h1.5
			c1.2,0,1.8,0.6,1.8,1.8V493.4z"/>
		<path id="XMLID_988_" d="M510.1,460.4c-0.2,4.4-0.2,8.9,0,13.5c0.2,6.1,1.7,10.5,4.6,13.2c2.8,2.7,6.7,4.1,11.6,4.1
			c2.1,0,4.1-0.2,5.9-0.6c1.8-0.4,3.4-1.1,4.7-2c1.4-1,2.5-2.2,3.5-3.8c1-1.6,1.7-3.6,2.2-6c0.1-0.6,0.3-1.1,0.6-1.3
			s0.7-0.4,1.1-0.4h1.6c0.5,0,0.9,0.1,1.2,0.4s0.5,0.7,0.4,1.2c-0.1,1.9-0.6,3.9-1.4,5.9c-0.8,2-2.1,3.9-3.8,5.6
			c-1.7,1.7-3.9,3.1-6.6,4.2c-2.7,1.1-5.9,1.6-9.7,1.6c-3.6,0-6.8-0.5-9.4-1.6c-2.6-1.1-4.8-2.6-6.5-4.5s-3-4.2-3.9-6.9
			c-0.9-2.6-1.3-5.5-1.4-8.7c-0.1-2.2-0.2-4.5-0.2-7.1c0-2.5,0.1-4.9,0.2-7.2c0.1-3.1,0.6-6,1.4-8.7c0.9-2.7,2.2-5,3.9-6.9
			c1.7-1.9,3.9-3.4,6.5-4.5c2.6-1.1,5.7-1.6,9.4-1.6c3.8,0,7,0.5,9.7,1.6c2.7,1.1,4.9,2.5,6.6,4.2c1.7,1.7,3,3.5,3.8,5.6
			c0.8,2,1.3,4,1.4,5.9c0.1,0.5-0.1,0.9-0.4,1.2c-0.3,0.3-0.8,0.4-1.2,0.4h-1.6c-0.4,0-0.8-0.1-1.1-0.4c-0.3-0.2-0.5-0.7-0.6-1.3
			c-0.5-2.4-1.3-4.4-2.2-6c-1-1.6-2.1-2.8-3.5-3.8s-2.9-1.6-4.7-2c-1.8-0.4-3.8-0.6-5.9-0.6c-4.9,0-8.8,1.4-11.6,4.1
			C511.8,449.9,510.3,454.3,510.1,460.4z"/>
	</g>
</g>
</svg>
