<?xml version="1.0" encoding="utf-8"?>
<!-- Generator: Adobe Illustrator 19.0.0, SVG Export Plug-In . SVG Version: 6.00 Build 0)  -->
<svg version="1.1" id="Layer_1" xmlns="http://www.w3.org/2000/svg" xmlns:xlink="http://www.w3.org/1999/xlink" x="0px" y="0px"
	 viewBox="0 0 612 260.7" style="enable-background:new 0 0 612 260.7;" xml:space="preserve">
<style type="text/css">
	.st0{fill:#FFFFFF;}
</style>
<g id="XMLID_1033_">
	<g id="XMLID_1065_">
		<path id="XMLID_1066_" class="st0" d="M470.1,141.3c-0.9,0.4-1.8,0-2.2-0.9l-0.3-0.8c-2.3-5.4-6.4-9.6-11.7-12L334.2,78.2
			c-0.9-0.3-1.3-1.3-0.9-2.2l0.6-1.6c0.3-0.9,1.3-1.3,2.2-0.9L457.8,123c6.6,2.9,11.7,8.1,14.4,14.6l0.3,0.8c0.4,0.9,0,1.8-0.9,2.2
			L470.1,141.3z"/>
	</g>
	<g id="XMLID_1063_">
		<path id="XMLID_1064_" class="st0" d="M139,141.3l-1.5-0.7c-0.9-0.4-1.3-1.3-0.9-2.2l0.3-0.8c2.8-6.5,7.9-11.7,14.3-14.6
			l164.1-67.2c11.3-5,18-17.6,15-30.3C328,14.8,318.9,6.6,308,5.3c-16.2-2-30,10.6-30,26.3v0.8c0,0.9-0.8,1.7-1.7,1.7h-1.7
			c-0.9,0-1.7-0.8-1.7-1.7v-0.1c0-16.4,12.3-30.7,28.6-32.2c18.7-1.7,34.5,13.1,34.5,31.5c0,12.5-7.4,23.8-18.8,28.9l-164.1,67.2
			c-5.2,2.3-9.4,6.6-11.7,11.9l-0.3,0.8C140.9,141.2,139.9,141.6,139,141.3z"/>
	</g>
	<g id="XMLID_1034_">
		<path id="XMLID_1061_" class="st0" d="M39.2,153.5c0-1.3,0.7-2,2-2h1.6c1.3,0,1.9,0.7,1.9,2v35c0,8.4-1.9,14.5-5.8,18.4
			c-3.9,3.9-9.3,5.8-16.4,5.8c-3.5,0-6.6-0.5-9.4-1.4c-2.8-1-5.1-2.4-7-4.4s-3.4-4.5-4.4-7.6c-1-3-1.5-6.7-1.5-10.9v-35
			c0-1.3,0.6-2,1.9-2h1.6c1.3,0,2,0.7,2,2v35.3c0,6.5,1.5,11.3,4.5,14.3c3,3,7.1,4.5,12.3,4.5c5.2,0,9.3-1.5,12.3-4.5
			c3-3,4.5-7.8,4.5-14.3V153.5z"/>
		<path id="XMLID_1059_" class="st0" d="M65.8,162.4V210c0,1.3-0.7,1.9-2,1.9h-1.6c-1.3,0-1.9-0.6-1.9-1.9v-56.5c0-1.3,0.6-2,1.9-2
			h1.8c0.6,0,1,0.1,1.3,0.4c0.3,0.3,0.4,0.5,0.6,0.6l31.9,48.7v-47.7c0-1.3,0.6-2,1.9-2h1.6c1.3,0,2,0.7,2,2v56.5c0,1.3-0.6,2-1.9,2
			h-1.9c-0.6,0-1-0.1-1.3-0.4c-0.3-0.3-0.4-0.5-0.6-0.6L65.8,162.4z"/>
		<path id="XMLID_1056_" class="st0" d="M154.6,196.8h-30.6l-5.4,13.8c-0.1,0.2-0.3,0.5-0.6,0.8c-0.3,0.3-0.7,0.5-1.3,0.5h-1.7
			c-0.5,0-0.9-0.2-1.2-0.5c-0.3-0.3-0.5-0.7-0.5-1.2c0-0.3,0.1-0.6,0.2-1l21.8-56c0.2-0.6,0.5-1,0.9-1.3c0.4-0.3,0.9-0.4,1.6-0.4
			h2.9c0.7,0,1.2,0.1,1.6,0.4c0.4,0.3,0.7,0.7,0.9,1.3l21.8,56c0.1,0.3,0.2,0.7,0.2,1c0,0.5-0.2,0.9-0.5,1.2
			c-0.3,0.3-0.7,0.5-1.2,0.5h-1.7c-0.6,0-1-0.2-1.3-0.5c-0.3-0.3-0.5-0.6-0.6-0.8L154.6,196.8z M126.1,191.6h26.4l-13.2-34
			L126.1,191.6z"/>
		<path id="XMLID_1053_" class="st0" d="M198.4,151.5c6,0,10.9,1.5,14.5,4.5c3.6,3,5.4,7.5,5.4,13.3c0,5.9-1.8,10.3-5.4,13.3
			c-3.6,3-8.4,4.5-14.5,4.5h-17.4V210c0,1.3-0.7,1.9-2,1.9h-1.6c-1.3,0-1.9-0.6-1.9-1.9v-56.5c0-1.3,0.6-2,1.9-2H198.4z
			 M180.9,182.1h17c5.1,0,8.8-1.1,11.2-3.2c2.4-2.2,3.6-5.3,3.6-9.5c0-4.1-1.2-7.3-3.6-9.5c-2.4-2.2-6.2-3.2-11.2-3.2h-17V182.1z"/>
		<path id="XMLID_1050_" class="st0" d="M250.2,150.6c3.3,0,6.4,0.5,9.1,1.5c2.8,1,5.1,2.5,7.1,4.4c2,2,3.5,4.5,4.7,7.4
			c1.1,3,1.7,6.5,1.9,10.5c0.1,2.6,0.2,5,0.2,7.3c0,2.2-0.1,4.7-0.2,7.2c-0.2,8.2-2.3,14.2-6.2,18c-3.9,3.9-9.4,5.8-16.6,5.8
			c-7.2,0-12.7-1.9-16.6-5.8c-3.9-3.9-5.9-9.9-6.2-18c-0.1-2.6-0.2-5-0.2-7.2c0-2.2,0.1-4.7,0.2-7.3c0.1-4,0.7-7.5,1.9-10.5
			c1.1-3,2.7-5.4,4.7-7.4s4.3-3.5,7.1-4.4C243.7,151.1,246.8,150.6,250.2,150.6z M250.2,155.8c-2.4,0-4.7,0.4-6.7,1.1
			c-2.1,0.7-3.9,1.9-5.4,3.4c-1.6,1.6-2.8,3.5-3.7,6c-0.9,2.4-1.4,5.3-1.5,8.6c-0.1,1.3-0.1,2.5-0.1,3.6c0,1.1,0,2.2,0,3.2
			c0,1,0,2.1,0,3.2c0,1.1,0.1,2.3,0.1,3.6c0.1,3.4,0.6,6.3,1.5,8.7c0.9,2.4,2.1,4.4,3.6,5.9c1.5,1.6,3.3,2.7,5.4,3.4
			c2.1,0.7,4.3,1.1,6.8,1.1c2.5,0,4.7-0.4,6.8-1.1c2.1-0.7,3.9-1.9,5.4-3.4c1.5-1.6,2.7-3.5,3.6-5.9c0.9-2.4,1.4-5.3,1.5-8.7
			c0.1-1.3,0.1-2.5,0.1-3.6c0-1.1,0-2.2,0-3.2c0-1,0-2.1,0-3.2c0-1.1,0-2.3-0.1-3.6c-0.1-3.3-0.6-6.2-1.5-8.6
			c-0.9-2.4-2.1-4.4-3.7-6c-1.6-1.6-3.4-2.7-5.4-3.4C254.8,156.2,252.6,155.8,250.2,155.8z"/>
		<path id="XMLID_1048_" class="st0" d="M292.3,206.8h29.8c1.3,0,2,0.7,2,2v1.3c0,1.3-0.7,1.9-2,1.9h-33.3c-1.3,0-1.9-0.6-1.9-1.9
			v-56.6c0-1.3,0.6-1.9,1.9-1.9h1.6c1.3,0,1.9,0.6,1.9,1.9V206.8z"/>
		<path id="XMLID_1045_" class="st0" d="M353.7,150.6c3.3,0,6.4,0.5,9.1,1.5c2.8,1,5.1,2.5,7.1,4.4c2,2,3.5,4.5,4.7,7.4
			c1.1,3,1.7,6.5,1.9,10.5c0.1,2.6,0.2,5,0.2,7.3c0,2.2-0.1,4.7-0.2,7.2c-0.2,8.2-2.3,14.2-6.2,18c-3.9,3.9-9.4,5.8-16.6,5.8
			c-7.2,0-12.7-1.9-16.6-5.8c-3.9-3.9-5.9-9.9-6.2-18c-0.1-2.6-0.2-5-0.2-7.2c0-2.2,0.1-4.7,0.2-7.3c0.1-4,0.7-7.5,1.9-10.5
			c1.1-3,2.7-5.4,4.7-7.4c2-2,4.3-3.5,7.1-4.4C347.2,151.1,350.3,150.6,353.7,150.6z M353.7,155.8c-2.4,0-4.7,0.4-6.7,1.1
			c-2.1,0.7-3.9,1.9-5.4,3.4c-1.6,1.6-2.8,3.5-3.7,6c-0.9,2.4-1.4,5.3-1.5,8.6c-0.1,1.3-0.1,2.5-0.1,3.6c0,1.1,0,2.2,0,3.2
			c0,1,0,2.1,0,3.2c0,1.1,0.1,2.3,0.1,3.6c0.1,3.4,0.6,6.3,1.5,8.7c0.9,2.4,2.1,4.4,3.6,5.9c1.5,1.6,3.3,2.7,5.4,3.4
			c2.1,0.7,4.3,1.1,6.8,1.1c2.5,0,4.7-0.4,6.8-1.1c2.1-0.7,3.9-1.9,5.4-3.4c1.5-1.6,2.7-3.5,3.6-5.9c0.9-2.4,1.4-5.3,1.5-8.7
			c0.1-1.3,0.1-2.5,0.1-3.6c0-1.1,0-2.2,0-3.2c0-1,0-2.1,0-3.2c0-1.1,0-2.3-0.1-3.6c-0.1-3.3-0.6-6.2-1.5-8.6
			c-0.9-2.4-2.1-4.4-3.7-6c-1.6-1.6-3.4-2.7-5.4-3.4C358.3,156.2,356.1,155.8,353.7,155.8z"/>
		<path id="XMLID_1043_" class="st0" d="M411,155.8c-2.6,0-4.9,0.3-7,1c-2.1,0.7-3.9,1.7-5.4,3.2c-1.5,1.5-2.7,3.4-3.6,5.7
			c-0.9,2.3-1.4,5.1-1.5,8.3c-0.2,5.2-0.2,10.4,0,15.5c0.1,3.2,0.6,6,1.5,8.3c0.9,2.3,2.1,4.2,3.6,5.7c1.5,1.5,3.3,2.5,5.4,3.2
			c2.1,0.7,4.4,1,7,1c2.5,0,4.9-0.4,7.1-1.1c2.2-0.7,4.1-1.8,5.7-3.3c1.6-1.5,2.8-3.4,3.8-5.7c0.9-2.3,1.4-5,1.4-8.1v-4.4h-15
			c-1.3,0-1.9-0.7-1.9-2v-1.2c0-1.3,0.6-2,1.9-2h18.5c1.3,0,2,0.7,2,2v7.6c0,3.5-0.5,6.6-1.6,9.5c-1,2.8-2.5,5.3-4.5,7.4
			c-2,2.1-4.4,3.7-7.3,4.8c-2.9,1.1-6.2,1.7-9.9,1.7c-3.7,0-7-0.6-9.8-1.7c-2.8-1.1-5.2-2.7-7.1-4.7c-1.9-2-3.4-4.4-4.4-7.2
			c-1-2.8-1.6-5.9-1.7-9.3c-0.1-2.6-0.2-5.3-0.2-8.2c0-2.9,0.1-5.6,0.2-8.2c0.1-3.4,0.7-6.5,1.7-9.3c1-2.8,2.5-5.2,4.4-7.2
			c1.9-2,4.3-3.6,7.1-4.7c2.8-1.1,6.1-1.7,9.8-1.7c4,0,7.4,0.6,10.2,1.8c2.8,1.2,5.1,2.6,6.9,4.3c1.8,1.7,3.1,3.4,4,5.3
			c0.9,1.8,1.3,3.4,1.4,4.6c0.1,0.5-0.1,0.9-0.4,1.3c-0.3,0.3-0.8,0.5-1.4,0.5h-1.9c-0.5,0-0.9-0.1-1.1-0.4
			c-0.2-0.3-0.5-0.7-0.7-1.3c-0.5-1.3-1.1-2.6-1.9-3.9c-0.8-1.3-1.9-2.4-3.3-3.5c-1.4-1-3-1.8-4.9-2.5
			C415.9,156.1,413.6,155.8,411,155.8z"/>
		<path id="XMLID_1041_" class="st0" d="M483.9,206.8c1.3,0,2,0.7,2,2v1.3c0,1.3-0.7,1.9-2,1.9h-34.4c-1.3,0-1.9-0.6-1.9-1.9v-56.5
			c0-1.3,0.6-2,1.9-2h33.7c1.3,0,2,0.7,2,2v1.3c0,1.3-0.7,1.9-2,1.9h-30.1v22h28.2c1.3,0,2,0.7,2,2v1.3c0,1.3-0.7,1.9-2,1.9h-28.2
			v22.9H483.9z"/>
		<path id="XMLID_1039_" class="st0" d="M534.4,151.5c1.3,0,2,0.7,2,2v1.3c0,1.3-0.7,1.9-2,1.9h-17V210c0,1.3-0.7,1.9-2,1.9h-1.6
			c-1.3,0-1.9-0.6-1.9-1.9v-53.3h-17.1c-1.3,0-1.9-0.6-1.9-1.9v-1.3c0-1.3,0.6-2,1.9-2H534.4z"/>
		<path id="XMLID_1037_" class="st0" d="M552.3,210c0,1.3-0.6,1.9-1.9,1.9h-1.6c-1.3,0-1.9-0.6-1.9-1.9v-56.6c0-1.3,0.6-1.9,1.9-1.9
			h1.6c1.3,0,1.9,0.6,1.9,1.9V210z"/>
		<path id="XMLID_1035_" class="st0" d="M571.5,174.5c-0.2,4.8-0.2,9.6,0,14.5c0.2,6.6,1.9,11.3,4.9,14.2c3,2.9,7.2,4.4,12.5,4.4
			c2.3,0,4.4-0.2,6.3-0.6c1.9-0.4,3.6-1.2,5.1-2.2c1.5-1,2.7-2.4,3.8-4.1c1-1.7,1.8-3.8,2.4-6.4c0.1-0.7,0.3-1.2,0.7-1.4
			c0.3-0.3,0.7-0.4,1.2-0.4h1.7c0.5,0,1,0.2,1.3,0.5c0.4,0.3,0.5,0.7,0.5,1.3c-0.1,2.1-0.6,4.2-1.5,6.4c-0.9,2.2-2.2,4.2-4.1,6
			c-1.8,1.8-4.2,3.3-7.1,4.5c-2.9,1.2-6.4,1.8-10.4,1.8c-3.9,0-7.3-0.6-10.1-1.8c-2.8-1.2-5.2-2.8-7-4.9c-1.9-2.1-3.3-4.5-4.2-7.4
			c-0.9-2.8-1.4-6-1.6-9.4c-0.1-2.4-0.2-4.9-0.2-7.6c0-2.7,0.1-5.3,0.2-7.8c0.1-3.3,0.6-6.4,1.6-9.3c0.9-2.9,2.3-5.4,4.2-7.4
			c1.9-2.1,4.2-3.7,7-4.9c2.8-1.2,6.2-1.8,10.1-1.8c4.1,0,7.6,0.6,10.4,1.8c2.9,1.2,5.2,2.7,7.1,4.5c1.8,1.8,3.2,3.8,4.1,6
			c0.9,2.2,1.4,4.3,1.5,6.4c0.1,0.5-0.1,0.9-0.5,1.3s-0.8,0.5-1.3,0.5h-1.7c-0.5,0-0.9-0.1-1.2-0.4c-0.3-0.3-0.6-0.7-0.7-1.4
			c-0.6-2.6-1.4-4.7-2.4-6.4c-1-1.7-2.3-3.1-3.8-4.1c-1.5-1-3.2-1.8-5.1-2.2c-1.9-0.4-4-0.6-6.3-0.6c-5.3,0-9.5,1.5-12.5,4.4
			C573.4,163.2,571.7,167.9,571.5,174.5z"/>
	</g>
</g>
<g id="XMLID_1_">
	<path id="XMLID_42_" class="st0" d="M224.7,224.7c2,0,3.8,0.3,5.4,1c1.6,0.6,2.9,1.4,4,2.3c1.1,0.9,1.9,1.9,2.5,3
		c0.6,1.1,0.9,2,0.9,2.8c0,0.3-0.1,0.6-0.3,0.8c-0.2,0.2-0.5,0.3-0.8,0.3h-2.1c-0.4,0-0.7-0.1-0.9-0.2c-0.2-0.1-0.4-0.4-0.7-0.9
		c-0.2-0.3-0.4-0.8-0.8-1.3c-0.4-0.5-0.9-1-1.6-1.5c-0.7-0.5-1.4-0.9-2.4-1.3c-0.9-0.4-2-0.5-3.3-0.5c-0.9,0-1.8,0.1-2.7,0.3
		c-0.9,0.2-1.6,0.5-2.3,1c-0.7,0.4-1.2,1-1.6,1.6c-0.4,0.7-0.6,1.4-0.6,2.3s0.2,1.6,0.6,2.2c0.4,0.6,1,1.1,1.9,1.6
		c0.9,0.5,1.9,0.9,3.2,1.3c1.3,0.4,2.9,0.9,4.8,1.4c1.9,0.5,3.5,1.1,4.8,1.7c1.3,0.6,2.4,1.3,3.2,2c0.8,0.8,1.4,1.6,1.8,2.6
		c0.4,1,0.6,2.1,0.6,3.3c0,1.5-0.3,2.9-1,4.1c-0.7,1.3-1.6,2.3-2.7,3.2c-1.2,0.9-2.6,1.6-4.2,2.1c-1.7,0.5-3.5,0.8-5.5,0.8
		c-1.9,0-3.7-0.3-5.4-0.9c-1.6-0.6-3-1.3-4.2-2.2c-1.2-0.9-2.1-1.9-2.8-3c-0.7-1.1-1-2.2-1.1-3.3c0-0.3,0.1-0.6,0.3-0.8
		c0.2-0.2,0.5-0.3,0.8-0.3h2.1c0.3,0,0.6,0.1,0.9,0.2c0.3,0.1,0.5,0.4,0.7,0.9c0.2,0.5,0.5,1,0.9,1.5c0.4,0.6,1,1.1,1.7,1.6
		c0.7,0.5,1.6,0.9,2.6,1.2c1,0.3,2.2,0.5,3.6,0.5c1.2,0,2.3-0.1,3.3-0.4c1.1-0.3,2-0.7,2.8-1.2c0.8-0.5,1.4-1.1,1.9-1.8
		c0.5-0.7,0.7-1.5,0.7-2.4s-0.3-1.6-0.8-2.2c-0.5-0.6-1.3-1.2-2.3-1.7c-1-0.5-2.2-1-3.7-1.4c-1.5-0.4-3.1-0.9-4.9-1.3
		c-1.7-0.4-3.1-1-4.3-1.6c-1.2-0.6-2.1-1.3-2.9-2.1c-0.7-0.8-1.3-1.7-1.6-2.7c-0.3-1-0.5-2-0.5-3.2c0-1.2,0.3-2.4,0.8-3.6
		c0.5-1.2,1.2-2.2,2.2-3.1c1-0.9,2.2-1.6,3.7-2.2C221,224.9,222.7,224.7,224.7,224.7z"/>
	<path id="XMLID_44_" class="st0" d="M266.2,225.2c0.4,0,0.7,0.1,1,0.4c0.3,0.3,0.4,0.6,0.4,1v1.8c0,0.4-0.1,0.7-0.4,1
		c-0.3,0.3-0.6,0.4-1,0.4h-9.4v29.2c0,0.4-0.1,0.7-0.4,1c-0.3,0.3-0.6,0.4-1,0.4h-2.1c-0.4,0-0.7-0.1-1-0.4c-0.3-0.3-0.4-0.6-0.4-1
		v-29.2h-9.4c-0.4,0-0.7-0.1-1-0.4c-0.3-0.3-0.4-0.6-0.4-1v-1.8c0-0.4,0.1-0.7,0.4-1c0.3-0.3,0.6-0.4,1-0.4H266.2z"/>
	<path id="XMLID_46_" class="st0" d="M287.1,258.9c0,0.4-0.1,0.7-0.4,1c-0.3,0.3-0.6,0.4-1,0.4h-2.1c-0.4,0-0.7-0.1-1-0.4
		c-0.3-0.3-0.4-0.6-0.4-1v-11.7l-12-20.2c-0.2-0.3-0.3-0.5-0.3-0.7c0-0.3,0.1-0.6,0.3-0.8c0.2-0.2,0.5-0.3,0.8-0.3h2.2
		c0.7,0,1.1,0.1,1.4,0.4c0.3,0.3,0.5,0.6,0.7,0.9l9.2,15.9l9.3-15.9c0.2-0.3,0.4-0.6,0.7-0.9c0.3-0.3,0.8-0.4,1.4-0.4h2.2
		c0.3,0,0.6,0.1,0.8,0.3c0.2,0.2,0.3,0.5,0.3,0.8c0,0.2-0.1,0.4-0.3,0.7l-12,20.2V258.9z"/>
	<path id="XMLID_48_" class="st0" d="M326.9,255.7c0.4,0,0.7,0.1,1,0.4c0.3,0.3,0.4,0.6,0.4,1v1.8c0,0.4-0.1,0.7-0.4,1
		c-0.3,0.3-0.6,0.4-1,0.4h-20.4c-0.4,0-0.7-0.1-1-0.4c-0.3-0.3-0.4-0.6-0.4-1v-32.4c0-0.4,0.1-0.7,0.4-1c0.3-0.3,0.6-0.4,1-0.4h2.1
		c0.4,0,0.7,0.1,1,0.4c0.3,0.3,0.4,0.6,0.4,1v29.2H326.9z"/>
	<path id="XMLID_50_" class="st0" d="M334.9,260.2c-0.4,0-0.7-0.1-1-0.4c-0.3-0.3-0.4-0.6-0.4-1v-32.4c0-0.4,0.1-0.7,0.4-1
		c0.3-0.3,0.6-0.4,1-0.4h2.1c0.4,0,0.7,0.1,1,0.4c0.3,0.3,0.4,0.6,0.4,1v32.4c0,0.4-0.1,0.7-0.4,1c-0.3,0.3-0.6,0.4-1,0.4H334.9z"/>
	<path id="XMLID_52_" class="st0" d="M357.7,224.7c2,0,3.8,0.3,5.4,1c1.6,0.6,2.9,1.4,4,2.3c1.1,0.9,1.9,1.9,2.5,3
		c0.6,1.1,0.9,2,0.9,2.8c0,0.3-0.1,0.6-0.3,0.8c-0.2,0.2-0.5,0.3-0.8,0.3h-2.1c-0.4,0-0.7-0.1-0.9-0.2c-0.2-0.1-0.4-0.4-0.7-0.9
		c-0.2-0.3-0.4-0.8-0.8-1.3c-0.4-0.5-0.9-1-1.6-1.5s-1.4-0.9-2.4-1.3c-0.9-0.4-2-0.5-3.3-0.5c-0.9,0-1.8,0.1-2.7,0.3
		c-0.9,0.2-1.6,0.5-2.3,1c-0.7,0.4-1.2,1-1.6,1.6s-0.6,1.4-0.6,2.3s0.2,1.6,0.6,2.2c0.4,0.6,1,1.1,1.9,1.6c0.9,0.5,1.9,0.9,3.2,1.3
		c1.3,0.4,2.9,0.9,4.8,1.4c1.9,0.5,3.5,1.1,4.8,1.7c1.3,0.6,2.4,1.3,3.2,2c0.8,0.8,1.4,1.6,1.8,2.6c0.4,1,0.6,2.1,0.6,3.3
		c0,1.5-0.3,2.9-1,4.1s-1.6,2.3-2.7,3.2c-1.2,0.9-2.6,1.6-4.2,2.1c-1.7,0.5-3.5,0.8-5.5,0.8c-1.9,0-3.7-0.3-5.4-0.9
		c-1.6-0.6-3-1.3-4.2-2.2s-2.1-1.9-2.8-3c-0.7-1.1-1-2.2-1.1-3.3c0-0.3,0.1-0.6,0.3-0.8c0.2-0.2,0.5-0.3,0.8-0.3h2.1
		c0.3,0,0.6,0.1,0.9,0.2c0.3,0.1,0.5,0.4,0.7,0.9c0.2,0.5,0.5,1,0.9,1.5c0.4,0.6,1,1.1,1.7,1.6c0.7,0.5,1.6,0.9,2.6,1.2
		c1,0.3,2.2,0.5,3.6,0.5c1.2,0,2.3-0.1,3.3-0.4c1.1-0.3,2-0.7,2.8-1.2c0.8-0.5,1.4-1.1,1.9-1.8c0.5-0.7,0.7-1.5,0.7-2.4
		s-0.3-1.6-0.8-2.2s-1.3-1.2-2.3-1.7s-2.2-1-3.7-1.4c-1.5-0.4-3.1-0.9-4.9-1.3c-1.7-0.4-3.1-1-4.3-1.6c-1.2-0.6-2.1-1.3-2.9-2.1
		c-0.7-0.8-1.3-1.7-1.6-2.7c-0.3-1-0.5-2-0.5-3.2c0-1.2,0.3-2.4,0.8-3.6c0.5-1.2,1.2-2.2,2.2-3.1c1-0.9,2.2-1.6,3.7-2.2
		C353.9,224.9,355.7,224.7,357.7,224.7z"/>
	<path id="XMLID_54_" class="st0" d="M399.1,225.2c0.4,0,0.7,0.1,1,0.4c0.3,0.3,0.4,0.6,0.4,1v1.8c0,0.4-0.1,0.7-0.4,1
		c-0.3,0.3-0.6,0.4-1,0.4h-9.4v29.2c0,0.4-0.1,0.7-0.4,1c-0.3,0.3-0.6,0.4-1,0.4h-2.1c-0.4,0-0.7-0.1-1-0.4c-0.3-0.3-0.4-0.6-0.4-1
		v-29.2h-9.4c-0.4,0-0.7-0.1-1-0.4c-0.3-0.3-0.4-0.6-0.4-1v-1.8c0-0.4,0.1-0.7,0.4-1c0.3-0.3,0.6-0.4,1-0.4H399.1z"/>
</g>
</svg>
